<?xml version="1.0" encoding="UTF-8"?>
<svg xmlns="http://www.w3.org/2000/svg" viewBox="0 0 512 512">
    <defs>
        <linearGradient id="gradient" x1="0%" y1="0%" x2="100%" y2="100%">
            <stop offset="30%" style="stop-color:#3b82f6"/>
            <stop offset="90%" style="stop-color:#10b981"/>
        </linearGradient>
    </defs>
    <path fill="url(#gradient)" d="M447.1 128L64 128V96c0-17.67 14.33-32 32-32h319.1c17.67 0 32 14.33 32 32V128zM76.17 256h52.76l25.5-51.04c4.469-8.766 13.5-14.96 24.06-14.96s19.59 6.193 24.06 14.96l25.5 51.04h197.9c7.449 0 13.5 6.051 13.5 13.5s-6.051 13.5-13.5 13.5h-206.2c-10.56 0-19.59-6.193-24.06-14.96L169.9 217h-42.84l-25.5 51.04c-4.469 8.766-13.5 14.96-24.06 14.96H13.5C6.051 283 0 276.9 0 269.5s6.051-13.5 13.5-13.5h52.76l25.5-51.04c4.469-8.766 13.5-14.96 24.06-14.96s19.59 6.193 24.06 14.96L164.4 256zM480 128v335.1c0 26.51-21.49 48-48 48H80c-26.51 0-48-21.49-48-48v-336h448V128z"/>
</svg> 